<svg id="Layer_5" enable-background="new 0 0 64 64" height="512" viewBox="0 0 64 64" width="512" xmlns="http://www.w3.org/2000/svg"><g><g><g><path d="m45 58v2c0 1.1-.9 2-2 2h-30c-1.1 0-2-.9-2-2v-2c0-1.1.9-2 2-2h3 24 3c1.1 0 2 .9 2 2z" fill="#969faa"/></g><g><path d="m40 56h-24c1.87-1.25 3-3.35 3-5.61v-.39h18v.39c0 2.26 1.13 4.36 3 5.61z" fill="#aab2bd"/></g><g><path d="m50 50h-44c-2.209 0-4-1.791-4-4v-30c0-2.209 1.791-4 4-4h44c2.209 0 4 1.791 4 4v30c0 2.209-1.791 4-4 4z" fill="#69d6f4"/></g><g><path d="m44 28v2c0 3.31 2.69 6 6 6v5c0 .55-.45 1-1 1h-42c-.55 0-1-.45-1-1v-17h36.93.01c.67.95 1.06 2.08 1.06 3.27z" fill="#e6e9ed"/></g><g><path d="m10 28h14v10h-14z" fill="#5cd6b3"/></g><g><path d="m6 24v-7c0-.55.45-1 1-1h31.17c.46 2.72 1.83 5.13 3.79 6.9.37.33.7.7.97 1.1z" fill="#ff826e"/></g><g><path d="m56 28v2c0 1.66-.67 3.16-1.76 4.24-.08.08-.16.15-.24.22-1.06.96-2.46 1.54-4 1.54-3.31 0-6-2.69-6-6v-2h4 4z" fill="#aab2bd"/></g><g><path d="m49.53 2.01c-5.67.22-10.41 4.53-11.36 9.99-.1.57-.16 1.14-.17 1.72-.02.78.04 1.54.17 2.28.46 2.72 1.83 5.13 3.79 6.9.37.33.7.7.97 1.1h.01c.67.95 1.06 2.08 1.06 3.27v.73h4 4 4v-.6c0-1.75.81-3.38 2.1-4.56 2.39-2.19 3.9-5.34 3.9-8.84 0-6.78-5.63-12.25-12.47-11.99z" fill="#ffeaa7"/></g><g><path d="m48 12v2h-2c-.55 0-1.05-.22-1.41-.59-.37-.36-.59-.86-.59-1.41s.22-1.05.59-1.41c.36-.37.86-.59 1.41-.59 1.1 0 2 .9 2 2z" fill="#fcd770"/></g><g><path d="m55.41 10.59c.37.36.59.86.59 1.41 0 1.1-.9 2-2 2h-2v-2c0-.55.22-1.05.59-1.41.36-.37.86-.59 1.41-.59s1.05.22 1.41.59z" fill="#fcd770"/></g></g><g><path d="m43 45h2v2h-2z"/><path d="m47 45h2v2h-2z"/><path d="m39 45h2v2h-2z"/><path d="m59.015 4.633c-2.569-2.473-5.948-3.761-9.522-3.623-5.81.222-10.77 4.494-12.121 9.99h-31.372c-2.757 0-5 2.243-5 5v30c0 2.757 2.243 5 5 5h11.963c-.168 1.595-.997 3.041-2.296 4h-2.667c-1.654 0-3 1.346-3 3v2c0 1.654 1.346 3 3 3h30c1.654 0 3-1.346 3-3v-2c0-1.654-1.346-3-3-3h-2.666c-1.299-.959-2.128-2.405-2.296-4h11.962c2.757 0 5-2.243 5-5v-11.111c1.235-1.263 2-2.988 2-4.889v-2.602c0-1.416.63-2.772 1.774-3.819 2.685-2.457 4.226-5.948 4.226-9.579 0-3.566-1.416-6.893-3.985-9.367zm-10.015 32.287v4.08h-42v-16h35.387c.397.705.613 1.477.613 2.271v2.729c0 3.519 2.613 6.432 6 6.92zm-42-13.92v-6h30.371c.535 2.245 1.661 4.315 3.286 6zm37 35v2c0 .552-.449 1-1 1h-30c-.551 0-1-.448-1-1v-2c0-.552.449-1 1-1h30c.551 0 1 .448 1 1zm-6.471-3h-19.058c.858-1.155 1.378-2.536 1.492-4h16.075c.114 1.464.634 2.845 1.491 4zm12.471-6h-44c-1.654 0-3-1.346-3-3v-30c0-1.654 1.346-3 3-3h31.055c-.018.232-.046.461-.051.695-.01.438.007.873.041 1.305h-30.045c-1.103 0-2 .897-2 2v24c0 1.103.897 2 2 2h42c1.103 0 2-.897 2-2v-4.08c.706-.102 1.378-.308 2-.605v9.685c0 1.654-1.346 3-3 3zm0-14c-2.757 0-5-2.243-5-5v-1h10v1c0 2.757-2.243 5-5 5zm-3-22h-1c-.551 0-1-.448-1-1s.449-1 1-1 1 .448 1 1zm4 14h-2v-12h2zm6.424-4.896c-1.458 1.333-2.295 3.06-2.402 4.896h-2.022v-12h1c1.654 0 3-1.346 3-3s-1.346-3-3-3-3 1.346-3 3v1h-2v-1c0-1.654-1.346-3-3-3s-3 1.346-3 3 1.346 3 3 3h1v12h-2.015c-.078-1.799-.919-3.552-2.351-4.844-2.381-2.148-3.704-5.215-3.631-8.415.131-5.701 4.87-10.516 10.565-10.733.146-.005.29-.008.435-.008 2.862 0 5.556 1.082 7.625 3.074 2.174 2.094 3.372 4.908 3.372 7.926 0 3.071-1.303 6.024-3.576 8.104zm-4.424-9.104v-1c0-.552.449-1 1-1s1 .448 1 1-.449 1-1 1z"/><path d="m17 19h2v2h-2z"/><path d="m13 19h2v2h-2z"/><path d="m9 19h2v2h-2z"/><path d="m9 39h16v-12h-16zm2-10h12v8h-12z"/><path d="m27 27h2v2h-2z"/><path d="m31 27h10v2h-10z"/><path d="m27 31h14v2h-14z"/><path d="m27 35h14v2h-14z"/></g></g></svg>